HIERARCHY
ROOT root
{
	OFFSET	0	13.1	24.9
	CHANNELS 6  Xposition Yposition Zposition Xrotation Yrotation Zrotation
	JOINT spine_1
	{
		OFFSET	0	9.99999	0
		CHANNELS 3  Xrotation Yrotation Zrotation
		JOINT spine_2
		{
			OFFSET	0	112	-10
			CHANNELS 3  Xrotation Yrotation Zrotation
			JOINT spine_3
			{
				OFFSET	0	206.5	19.3
				CHANNELS 3  Xrotation Yrotation Zrotation
				JOINT spine_4
				{
					OFFSET	0	110.4	14.6
					CHANNELS 3  Xrotation Yrotation Zrotation
					JOINT neck_1
					{
						OFFSET	0	71.8	-50.3
						CHANNELS 3  Xrotation Yrotation Zrotation
						JOINT neck_2
						{
							OFFSET	0	86.2	-25.8
							CHANNELS 3  Xrotation Yrotation Zrotation
							JOINT head_ee
							{
								OFFSET	0	179.8	-8.7
								CHANNELS 3  Xrotation Yrotation Zrotation
								End Site
								{
									OFFSET	1	0	0
								}
							}
						}
					}
					JOINT left_clavicle
					{
						OFFSET	-43.2	22.4	-70.8
						CHANNELS 3  Xrotation Yrotation Zrotation
						JOINT left_shoulder
						{
							OFFSET	-93.9	-5.79999	48.7
							CHANNELS 3  Xrotation Yrotation Zrotation
							JOINT left_elbow
							{
								OFFSET	-291.4	-30.8	15.2
								CHANNELS 3  Xrotation Yrotation Zrotation
								JOINT left_lowarm_twist
								{
									OFFSET	-110.7	-3.89999	13.6
									CHANNELS 3  Xrotation Yrotation Zrotation
									JOINT left_hand
									{
										OFFSET	-110.7	-3.89999	13.6
										CHANNELS 3  Xrotation Yrotation Zrotation
										JOINT left_ee
										{
											OFFSET	-80.8	-5.10001	12.1
											CHANNELS 3  Xrotation Yrotation Zrotation
											End Site
											{
												OFFSET	1	0	0
											}
										}
									}
								}
							}
						}
					}
					JOINT right_clavicle
					{
						OFFSET	43.2	22.4	-70.8
						CHANNELS 3  Xrotation Yrotation Zrotation
						JOINT right_shoulder
						{
							OFFSET	93.9	-5.79999	48.7
							CHANNELS 3  Xrotation Yrotation Zrotation
							JOINT right_elbow
							{
								OFFSET	291.4	-30.8	15.2
								CHANNELS 3  Xrotation Yrotation Zrotation
								JOINT right_lowarm_twist
								{
									OFFSET	110.7	-3.89999	13.6
									CHANNELS 3  Xrotation Yrotation Zrotation
									JOINT right_hand
									{
										OFFSET	110.7	-3.89999	13.6
										CHANNELS 3  Xrotation Yrotation Zrotation
										JOINT right_ee
										{
											OFFSET	80.8	-5.10001	12.1
											CHANNELS 3  Xrotation Yrotation Zrotation
											End Site
											{
												OFFSET	1	0	0
											}
										}
									}
								}
							}
						}
					}
				}
			}
		}
	}
	JOINT left_hip
	{
		OFFSET	-82.8	-127.5	0.300001
		CHANNELS 3  Xrotation Yrotation Zrotation
		JOINT left_knee
		{
			OFFSET	-28.2	-396.7	2.2
			CHANNELS 3  Xrotation Yrotation Zrotation
			JOINT left_ankle
			{
				OFFSET	-11.7	-411.3	35.4
				CHANNELS 3  Xrotation Yrotation Zrotation
				JOINT left_toes
				{
					OFFSET	0	-60	-88.6
					CHANNELS 3  Xrotation Yrotation Zrotation
					JOINT left_foot_ee
					{
						OFFSET	-22.5	-16.5	-42.2
						CHANNELS 3  Xrotation Yrotation Zrotation
						End Site
						{
							OFFSET	1	0	0
						}
					}
				}
			}
		}
	}
	JOINT right_hip
	{
		OFFSET	82.8	-127.5	0.300001
		CHANNELS 3  Xrotation Yrotation Zrotation
		JOINT right_knee
		{
			OFFSET	28.2	-396.7	2.2
			CHANNELS 3  Xrotation Yrotation Zrotation
			JOINT right_ankle
			{
				OFFSET	11.7	-411.3	35.4
				CHANNELS 3  Xrotation Yrotation Zrotation
				JOINT right_toes
				{
					OFFSET	0	-60	-88.6
					CHANNELS 3  Xrotation Yrotation Zrotation
					JOINT right_foot_ee
					{
						OFFSET	22.5	-16.5	-42.2
						CHANNELS 3  Xrotation Yrotation Zrotation
						End Site
						{
							OFFSET	1	0	0
						}
					}
				}
			}
		}
	}
}
MOTION
Frames: 9
Frame Time: 0.02
2800.94 716.97 -1473.77 0.493819258383 80.6055913485 1.87356070435 0.492211 -0.456119 -1.16141 0.49288 -0.381297 -1.18808 0.501209 -0.133982 -1.24055 0.499211 -0.328207 -1.20383 -7.42329 0.365388 -0.549463 -7.42234 1.07349 -0.471055 -0.0 0.0 -0.0 9.2152 9.2989 17.464 13.9345 -23.3523 69.1992 2.16314 -46.9723 0.940027 84.607 -4.37953 -8.84785 -1.60148 14.0282 -4.24477 -0.0 0.0 -0.0 9.85043 -20.3567 -17.1591 -13.6317 -12.3855 -53.5511 0.292261 8.23808 -0.0210471 26.4756 -0.16177 3.34823 -2.08616 -28.7425 0.0417916 0.0 0.0 0.0 -14.8399 0.174935 -3.00501 -7.62127 0.23795 1.14457 40.3258 20.715 -5.07584 -31.4024 0.0 0.0 -0.0 0.0 -0.0 25.7594 -12.0595 0.452604 5.67087 0.274707 0.826276 15.6651 -5.34017 2.18106 -20.1192 0.0 0.0 0.0 0.0 0.0 
2777.34682881 716.077 -1485.37403694 1.94286714839 80.7455260969 -0.0270455704452 0.673493 -0.42293 -0.923998 0.673895 -0.363279 -0.949035 0.680172 -0.167646 -1.00226 0.678916 -0.323823 -0.963211 -7.27537 0.571055 0.229066 -7.27528 0.897517 0.346285 -0.0 0.0 -0.0 8.93993 10.7082 16.8317 11.3451 -22.649 68.3183 2.17622 -47.1445 0.949603 84.6542 -4.38517 -8.85006 -1.60822 15.6659 -3.5211 -0.0 0.0 -0.0 10.0207 -20.342 -17.4331 -13.6818 -12.3667 -54.4116 0.28861 8.13656 -0.0205273 26.8436 -0.153076 3.39443 -1.96846 -28.8689 -0.650925 0.0 0.0 0.0 -15.8878 0.93445 -3.29092 -9.49193 0.272921 1.42949 39.1146 20.118 -4.94854 -31.4224 0.0 0.0 -0.0 0.0 -0.0 25.9877 -12.7282 -0.191145 0.722075 0.0304066 0.106634 21.749 -5.40021 2.94624 -16.8851 0.0 0.0 0.0 0.0 0.0 
2752.53201232 715.771 -1495.23285557 5.13636858385 80.4587976984 -3.53078908859 0.759418 -0.288639 -0.750384 0.759699 -0.240307 -0.767229 0.763066 -0.0843547 -0.799543 0.762235 -0.209565 -0.776189 -7.44859 0.922408 0.936886 -7.44638 1.0464 1.12562 -0.0 0.0 -0.0 8.68855 11.4249 16.3135 8.23258 -21.9612 67.6642 2.12225 -46.4269 0.910273 84.8241 -4.40547 -8.85799 -1.70073 17.9368 -3.02041 -0.0 0.0 -0.0 10.1485 -20.3333 -17.6391 -13.7341 -12.386 -55.0989 0.287823 8.11466 -0.020416 27.1454 -0.145725 3.43228 -1.84388 -28.6605 -1.22083 0.0 0.0 0.0 -16.5623 1.47294 -3.6444 -10.812 0.291991 1.63113 37.6189 20.1023 -4.80472 -31.535 0.0 0.0 -0.0 0.0 -0.0 26.1438 -12.8519 0.711487 -5.29742 -0.181577 -0.792432 25.8561 -6.03679 3.42944 -14.7499 0.0 0.0 0.0 0.0 0.0 
2727.65403675 713.539 -1504.88559241 7.26382663215 80.7041438085 -5.99810179405 0.849512 -0.160304 -0.575724 0.849688 -0.123345 -0.584757 0.851017 -0.0065669 -0.597588 0.850533 -0.100861 -0.589051 -7.40283 1.47764 1.21372 -7.39932 1.88036 1.51671 -0.0 0.0 -0.0 8.24958 12.2734 15.4603 5.74373 -21.993 67.1122 2.07004 -45.7141 0.872671 84.9389 -4.41921 -8.86331 -1.85628 20.7118 -2.63068 -0.0 0.0 -0.0 10.2557 -20.1339 -17.8465 -13.4925 -12.2753 -55.4112 0.288527 8.13426 -0.0205155 27.4135 -0.139027 3.46588 -1.74524 -28.5505 -1.70028 0.0 0.0 0.0 -17.1769 1.91389 -3.14092 -13.2167 0.314772 1.99937 36.3229 20.1172 -4.67706 -31.6748 0.0 0.0 -0.0 0.0 -0.0 25.9042 -13.2416 1.12014 -9.69505 -0.276158 -1.46049 29.2894 -6.65533 3.81173 -13.2858 0.0 0.0 0.0 0.0 0.0 
2701.35264936 712.405 -1511.49043746 8.49840833321 80.4721735338 -8.38285284053 1.06806 -0.02119 -0.276071 1.06811 -0.00357995 -0.27686 1.06813 0.0496205 -0.272401 1.06803 0.00597732 -0.276819 -6.38384 1.90661 -0.374807 -6.38198 3.80458 -0.00871099 -0.0 0.0 -0.0 7.64935 12.4312 14.3952 2.91746 -21.0693 67.483 1.9119 -43.4391 0.761651 84.565 -4.37452 -8.84588 -2.24536 25.8287 -2.35585 -0.0 0.0 -0.0 10.5067 -19.9805 -18.2802 -12.8757 -11.969 -55.9312 0.294619 8.30363 -0.0213864 28.1207 -0.120606 3.55433 -1.78711 -28.7101 -1.54926 0.0 0.0 0.0 -17.4123 2.39093 -2.49497 -15.9214 0.321908 2.41426 35.7852 23.8293 -4.71184 -31.624 0.0 0.0 -0.0 0.0 -0.0 24.9091 -13.541 1.09867 -12.958 -0.313064 -1.95972 28.845 -7.44116 3.76413 -12.2311 0.0 0.0 0.0 0.0 0.0 
2678.37581977 714.695 -1521.9434463 9.17151896176 80.7234773239 -9.05357197419 0.938722 0.017938 -0.248447 0.938756 0.0337109 -0.246802 0.938615 0.0809825 -0.235562 0.93854 0.0427636 -0.245395 -5.91637 1.98432 1.54451 -5.91007 2.52493 1.92904 -0.0 0.0 -0.0 7.70729 12.4589 14.4945 0.149253 -19.7377 66.5558 1.68083 -39.7787 0.608137 84.1408 -4.32394 -8.82574 -2.11505 24.0356 -2.51391 -0.0 0.0 -0.0 10.6778 -19.3555 -18.6754 -11.8995 -11.5261 -56.6439 0.320024 9.00834 -0.0252099 28.6178 -0.107003 3.61637 -1.43595 -28.8467 -3.49869 0.0 0.0 0.0 -17.6918 1.01841 -3.7349 -17.4978 0.317032 2.65606 32.6071 22.4255 -4.33947 -32.2672 0.0 0.0 -0.0 0.0 -0.0 24.3433 -13.6941 0.846714 -15.1097 -0.321824 -2.28971 29.7595 -8.76369 3.86625 -11.0834 0.0 0.0 0.0 0.0 0.0 
2655.6732603 716.17 -1525.22501005 15.8783523786 81.9438951062 -15.729445012 0.88375 0.0904447 -0.123753 0.883753 0.0981361 -0.117747 0.883547 0.11922 -0.0963404 0.883549 0.102509 -0.11396 -5.47263 2.23862 0.45054 -5.47021 3.79008 0.859336 -0.0 0.0 -0.0 7.82165 12.6977 14.677 -2.3045 -19.1007 66.0728 1.41829 -35.089 0.448416 84.1153 -4.3209 -8.82452 -2.47152 26.2722 -3.38882 -0.0 0.0 -0.0 10.9441 -18.9634 -19.1906 -11.214 -11.0786 -57.401 0.339266 9.54031 -0.028311 28.86 -0.100181 3.64656 -1.39765 -28.7263 -3.65163 0.0 0.0 0.0 -16.6889 -0.309106 -4.78402 -21.7829 0.270195 3.31173 29.8616 25.6079 -4.10632 -33.089 0.0 0.0 -0.0 0.0 -0.0 21.9489 -13.8014 0.374433 -16.2342 -0.321469 -2.46225 29.3729 -9.76956 3.82801 -10.5602 0.0 0.0 0.0 0.0 0.0 
2655.72470868 716.17 -1525.37002798 15.7685226216 81.8888551116 -15.6185130357 0.88375 0.0904447 -0.123753 0.883753 0.0981361 -0.117747 0.883547 0.11922 -0.0963404 0.883549 0.102509 -0.11396 -5.47263 2.23862 0.45054 -5.47021 3.79008 0.859336 -0.0 0.0 -0.0 7.82165 12.6977 14.677 -2.3045 -19.1007 66.0728 1.41829 -35.089 0.448416 84.1153 -4.3209 -8.82452 -2.47152 26.2722 -3.38882 -0.0 0.0 -0.0 10.9441 -18.9634 -19.1906 -11.214 -11.0786 -57.401 0.339266 9.54031 -0.028311 28.86 -0.100181 3.64656 -1.39765 -28.7263 -3.65163 0.0 0.0 0.0 -16.6889 -0.309106 -4.78402 -21.7829 0.270195 3.31173 29.8616 25.6079 -4.10632 -33.089 0.0 0.0 -0.0 0.0 -0.0 21.9489 -13.8014 0.374433 -16.2342 -0.321469 -2.46225 29.3729 -9.76956 3.82801 -10.5602 0.0 0.0 0.0 0.0 0.0 
2655.8924486 716.17 -1525.83967978 15.4226259722 81.7102689647 -15.2690435518 0.88375 0.0904447 -0.123753 0.883753 0.0981361 -0.117747 0.883547 0.11922 -0.0963404 0.883549 0.102509 -0.11396 -5.47263 2.23862 0.45054 -5.47021 3.79008 0.859336 -0.0 0.0 -0.0 7.82165 12.6977 14.677 -2.3045 -19.1007 66.0728 1.41829 -35.089 0.448416 84.1153 -4.3209 -8.82452 -2.47152 26.2722 -3.38882 -0.0 0.0 -0.0 10.9441 -18.9634 -19.1906 -11.214 -11.0786 -57.401 0.339266 9.54031 -0.028311 28.86 -0.100181 3.64656 -1.39765 -28.7263 -3.65163 0.0 0.0 0.0 -16.6889 -0.309106 -4.78402 -21.7829 0.270195 3.31173 29.8616 25.6079 -4.10632 -33.089 0.0 0.0 -0.0 0.0 -0.0 21.9489 -13.8014 0.374433 -16.2342 -0.321469 -2.46225 29.3729 -9.76956 3.82801 -10.5602 0.0 0.0 0.0 0.0 0.0 
